<?xml version="1.0" encoding="UTF-8"?>
<!DOCTYPE svg PUBLIC "-//W3C//DTD SVG 1.1//EN" "http://www.w3.org/Graphics/SVG/1.1/DTD/svg11.dtd">
<!-- Creator: CorelDRAW 2018 (64-Bit) -->
<svg xmlns="http://www.w3.org/2000/svg" xml:space="preserve" width="50px" height="50px" version="1.1" style="shape-rendering:geometricPrecision; text-rendering:geometricPrecision; image-rendering:optimizeQuality; fill-rule:evenodd; clip-rule:evenodd"
viewBox="0 0 5000 5000"
 xmlns:xlink="http://www.w3.org/1999/xlink">
 <defs>
  <style type="text/css">
   <![CDATA[
    .fil0 {fill:#EE604E;fill-rule:nonzero}
   ]]>
  </style>
 </defs>
 <g id="Layer_x0020_1">
  <metadata id="CorelCorpID_0Corel-Layer"/>
  <path class="fil0" d="M1569 1147.9l267.7 -662.5c20.8,-51.5 66.4,-91.2 124.9,-91.2l1080 0.3c51.8,0 100.6,31.1 121.3,82.1l271.2 671.3 1086.7 0c172.3,0 172.3,262 0,262l-406.4 0 0 2752.1c0,327.7 -267.7,595.4 -595.3,595.4l-2035 0c-327.7,0 -595.3,-267.7 -595.3,-595.4l0 -2752.1 -406.4 0c-172.4,0 -172.4,-262 0,-262l1086.6 0zm316.3 2715.8c0,172.3 -262.1,172.3 -262.1,0l0 -1822.1c0,-172.4 262.1,-172.4 262.1,0l0 1822.1zm747.3 0c0,172.3 -262.1,172.3 -262.1,0l0 -1822.1c0,-172.4 262.1,-172.4 262.1,0l0 1822.1zm747.3 0c0,172.3 -262.1,172.3 -262.1,0l0 -1822.1c0,-172.4 262.1,-172.4 262.1,0l0 1822.1zm-1529 -2715.8l1301.3 0 -198.7 -491.6 -903.9 0 -198.7 491.6zm2001.4 262c-900.5,0 -1801,0 -2701.5,0l0 2752.1c0,183.1 150.3,333.3 333.3,333.3l2035 0c183,0 333.2,-150.2 333.2,-333.3l0 -2752.1z"/>
 </g>
</svg>
