<?xml version="1.0" encoding="UTF-8"?>
<!DOCTYPE svg PUBLIC "-//W3C//DTD SVG 1.1//EN" "http://www.w3.org/Graphics/SVG/1.1/DTD/svg11.dtd">
<!-- Creator: CorelDRAW 2018 (64-Bit) -->
<svg xmlns="http://www.w3.org/2000/svg" xml:space="preserve" width="50px" height="50px" version="1.1" style="shape-rendering:geometricPrecision; text-rendering:geometricPrecision; image-rendering:optimizeQuality; fill-rule:evenodd; clip-rule:evenodd"
viewBox="0 0 5000 5000"
 xmlns:xlink="http://www.w3.org/1999/xlink">
 <defs>
  <style type="text/css">
   <![CDATA[
    .fil0 {fill:#EE604E;fill-rule:nonzero}
   ]]>
  </style>
 </defs>
 <g id="Layer_x0020_1">
  <metadata id="CorelCorpID_0Corel-Layer"/>
  <path class="fil0" d="M966 2891.2l2198 -2198c230.5,-230.6 611.2,-230.6 841.8,0l389.4 389.4c230.6,230.6 230.6,611.3 0,841.9l-2197.9 2197.9c-17.7,17.6 -38.5,28.4 -62.5,34.9l-1431.4 388c-98.9,26.8 -185.8,-66 -159.6,-162.5l386.8 -1427c6.4,-23.4 17,-46.2 35.4,-64.6zm-110.4 1341.6l996.6 -270.2 -726.4 -726.4 -270.2 996.6zm2353.6 -3214.2l860.7 860.6 140 -140c128.8,-128.8 128.8,-342.6 0,-471.3l-389.3 -389.4c-128.8,-128.8 -342.6,-128.8 -471.4,0l-140 140.1zm-185.3 185.2l-1780 1780 860.7 860.7 1780 -1780 -860.7 -860.7z"/>
 </g>
</svg>
