<?xml version="1.0" encoding="UTF-8"?>
<!DOCTYPE svg PUBLIC "-//W3C//DTD SVG 1.1//EN" "http://www.w3.org/Graphics/SVG/1.1/DTD/svg11.dtd">
<!-- Creator: CorelDRAW 2018 (64-Bit) -->
<svg xmlns="http://www.w3.org/2000/svg" xml:space="preserve" width="50px" height="50px" version="1.1" style="shape-rendering:geometricPrecision; text-rendering:geometricPrecision; image-rendering:optimizeQuality; fill-rule:evenodd; clip-rule:evenodd"
viewBox="0 0 5000 5000"
 xmlns:xlink="http://www.w3.org/1999/xlink">
 <defs>
  <style type="text/css">
   <![CDATA[
    .fil0 {fill:#EE604E;fill-rule:nonzero}
   ]]>
  </style>
 </defs>
 <g id="Layer_x0020_1">
  <metadata id="CorelCorpID_0Corel-Layer"/>
  <path class="fil0" d="M2568.2 4320.8c545.9,0 1058.4,-242.5 1405.1,-662.6l462.2 268.7c-445.4,582 -1132,923.1 -1867.3,923.1 -1297.9,0 -2350,-1052.2 -2350,-2350 0,-1297.8 1052.1,-2350 2350,-2350 681.3,0 1323.8,292.7 1771,805.4l442.6 -189.2 -192.3 1559.7 -1260.2 -938.9 490.4 -209.6c-326.2,-308.8 -766.8,-498.3 -1251.5,-498.3 -1005.7,0 -1820.9,815.2 -1820.9,1820.9 0,1005.7 815.2,1820.8 1820.9,1820.8z"/>
 </g>
</svg>
