<?xml version="1.0" encoding="UTF-8"?>
<!DOCTYPE svg PUBLIC "-//W3C//DTD SVG 1.1//EN" "http://www.w3.org/Graphics/SVG/1.1/DTD/svg11.dtd">
<!-- Creator: CorelDRAW 2018 (64-Bit) -->
<svg xmlns="http://www.w3.org/2000/svg" xml:space="preserve" width="50px" height="50px" version="1.1" style="shape-rendering:geometricPrecision; text-rendering:geometricPrecision; image-rendering:optimizeQuality; fill-rule:evenodd; clip-rule:evenodd"
viewBox="0 0 5000 5000"
 xmlns:xlink="http://www.w3.org/1999/xlink">
 <defs>
  <style type="text/css">
   <![CDATA[
    .fil0 {fill:#EE604E;fill-rule:nonzero}
   ]]>
  </style>
 </defs>
 <g id="Layer_x0020_1">
  <metadata id="CorelCorpID_0Corel-Layer"/>
  <path class="fil0" d="M2483.6 4635c1033.7,0 1871.6,-837.9 1871.6,-1871.5 0,-1033.7 -837.9,-1871.6 -1871.6,-1871.6 -1033.6,0 -1871.5,837.9 -1871.5,1871.6 0,1033.6 837.9,1871.5 1871.5,1871.5zm688.4 -4585c172.3,0 172.3,262.1 0,262.1l-426.3 0 0 333.7c408.2,50.1 780.7,215.3 1084.1,462.3l351.4 -317.4 437.7 483.6 -351.7 317.7c221.3,336.3 350,738.8 350,1171.5 0,1178.3 -955.2,2133.6 -2133.6,2133.6 -1178.3,0 -2133.5,-955.3 -2133.5,-2133.6 0,-1077 804.3,-1986.9 1871.5,-2117.7l0 -333.7 -426.3 0c-172.3,0 -172.3,-262.1 0,-262.1l1376.7 0zm-819.4 1509.1c0,-172.4 262.1,-172.4 262.1,0l0 1129.4 937.5 541.3c148.4,85.7 18.5,311.9 -130,226.2l-993 -573.3c-43,-24.9 -76.6,-66.3 -76.6,-119.2l0 -1204.4z"/>
 </g>
</svg>
