<?xml version="1.0" encoding="UTF-8"?>
<!DOCTYPE svg PUBLIC "-//W3C//DTD SVG 1.1//EN" "http://www.w3.org/Graphics/SVG/1.1/DTD/svg11.dtd">
<!-- Creator: CorelDRAW 2018 (64-Bit) -->
<svg xmlns="http://www.w3.org/2000/svg" xml:space="preserve" width="50px" height="50px" version="1.1" style="shape-rendering:geometricPrecision; text-rendering:geometricPrecision; image-rendering:optimizeQuality; fill-rule:evenodd; clip-rule:evenodd"
viewBox="0 0 5000 5000"
 xmlns:xlink="http://www.w3.org/1999/xlink">
 <defs>
  <style type="text/css">
   <![CDATA[
    .fil0 {fill:#EE604E;fill-rule:nonzero}
    .fil1 {fill:#EE604E;fill-rule:nonzero}
   ]]>
  </style>
 </defs>
 <g id="Layer_x0020_1">
  <metadata id="CorelCorpID_0Corel-Layer"/>
  <path class="fil0" d="M2483.6 4635c1033.7,0 1871.6,-837.9 1871.6,-1871.5 0,-1033.7 -837.9,-1871.6 -1871.6,-1871.6 -616.5,0 -1163.3,298.1 -1504.3,758.1l-315.6 0c329.8,-538.6 892.8,-922.7 1557.9,-1004.2l0 -333.7 -426.3 0c-172.3,0 -172.3,-262.1 0,-262.1l1376.7 0c172.3,0 172.3,262.1 0,262.1l-426.3 0 0 333.7c408.2,50.1 780.8,215.3 1084.1,462.3l351.4 -317.4 437.7 483.6 -351.7 317.7c221.3,336.3 350,738.8 350,1171.5 0,1178.3 -955.2,2133.6 -2133.6,2133.6 -822.3,0 -1536,-465.4 -1892.1,-1147.1l301.6 0c330.1,531.2 919,885 1590.5,885zm-131 -3075.9c0,-172.4 262.1,-172.4 262.1,0l0 1129.4 937.5 541.3c148.5,85.7 18.5,311.9 -129.9,226.2l-993.1 -573.3c-43,-24.9 -76.6,-66.3 -76.6,-119.2l0 -1204.4z"/>
  <polygon class="fil1" points="0,2600 1700,2600 1700,2800 0,2800 "/>
  <polygon class="fil1" points="400,3200 1700,3200 1700,3400 400,3400 "/>
  <polygon class="fil1" points="400,2000.1 1700,2000.1 1700,2200.1 400,2200.1 "/>
 </g>
</svg>
